<svg width="512" height="512" viewBox="0 0 512 512" fill="none" xmlns="http://www.w3.org/2000/svg">
<g clip-path="url(#clip0)">
<path d="M301.249 226.744C326.244 251.739 326.244 292.262 301.249 317.256C276.255 342.251 235.731 342.251 210.737 317.256C185.743 292.262 185.743 251.739 210.737 226.744C235.731 201.75 276.255 201.75 301.249 226.744" fill="white"/>
<path d="M447.999 95.9955H403.778L371.762 31.9933H140.208L108.222 96.0269L64.0641 96.1055C28.8602 96.1684 0.202303 124.857 0.171905 160.076L0 415.99C0 451.288 28.704 480.008 64.0022 480.008H447.999C483.297 480.008 512.001 451.304 512.001 416.006V159.997C512 124.699 483.296 95.9955 447.999 95.9955ZM255.992 400.005C185.411 400.005 127.988 342.581 127.988 272C127.988 201.42 185.411 143.996 255.992 143.996C326.573 143.996 383.997 201.42 383.997 272C383.997 342.581 326.573 400.005 255.992 400.005Z" fill="white"/>
</g>
<defs>
<clipPath id="clip0">
<rect width="512" height="512" fill="white"/>
</clipPath>
</defs>
</svg>
